ModelForces
version=1
nRows=4
nColumns=206
inDegrees=no

This file contains the forces exerted on a model during a simulation.

A force is a generalized force, meaning that it can be either a force (N) or a torque (Nm).

Units are S.I. units (second, meters, Newtons, ...)
Angles are in degrees.

endheader
time	glut_med1_r	glut_med2_r	glut_med3_r	glut_min1_r	glut_min2_r	glut_min3_r	semimem_r	semiten_r	bifemlh_r	bifemsh_r	sar_r	add_long_r	add_brev_r	add_mag1_r	add_mag2_r	add_mag3_r	tfl_r	pect_r	grac_r	glut_max1_r	glut_max2_r	glut_max3_r	iliacus_r	psoas_r	quad_fem_r	gem_r	peri_r	rect_fem_r	vas_med_r	vas_int_r	vas_lat_r	med_gas_r	lat_gas_r	soleus_r	tib_post_r	flex_dig_r	flex_hal_r	tib_ant_r	per_brev_r	per_long_r	per_tert_r	ext_dig_r	ext_hal_r	glut_med1_l	glut_med2_l	glut_med3_l	glut_min1_l	glut_min2_l	glut_min3_l	semimem_l	semiten_l	bifemlh_l	bifemsh_l	sar_l	add_long_l	add_brev_l	add_mag1_l	add_mag2_l	add_mag3_l	tfl_l	pect_l	grac_l	glut_max1_l	glut_max2_l	glut_max3_l	iliacus_l	psoas_l	quad_fem_l	gem_l	peri_l	rect_fem_l	vas_med_l	vas_int_l	vas_lat_l	med_gas_l	lat_gas_l	soleus_l	tib_post_l	flex_dig_l	flex_hal_l	tib_ant_l	per_brev_l	per_long_l	per_tert_l	ext_dig_l	ext_hal_l	ercspn_r	ercspn_l	intobl_r	intobl_l	extobl_r	extobl_l	femur_lat_meniscii_l.femur_lat_l.force.X	femur_lat_meniscii_l.femur_lat_l.force.Y	femur_lat_meniscii_l.femur_lat_l.force.Z	femur_lat_meniscii_l.femur_lat_l.torque.X	femur_lat_meniscii_l.femur_lat_l.torque.Y	femur_lat_meniscii_l.femur_lat_l.torque.Z	femur_lat_meniscii_l.meniscus_lat_l.force.X	femur_lat_meniscii_l.meniscus_lat_l.force.Y	femur_lat_meniscii_l.meniscus_lat_l.force.Z	femur_lat_meniscii_l.meniscus_lat_l.torque.X	femur_lat_meniscii_l.meniscus_lat_l.torque.Y	femur_lat_meniscii_l.meniscus_lat_l.torque.Z	femur_med_meniscii_l.femur_med_l.force.X	femur_med_meniscii_l.femur_med_l.force.Y	femur_med_meniscii_l.femur_med_l.force.Z	femur_med_meniscii_l.femur_med_l.torque.X	femur_med_meniscii_l.femur_med_l.torque.Y	femur_med_meniscii_l.femur_med_l.torque.Z	femur_med_meniscii_l.meniscus_med_l.force.X	femur_med_meniscii_l.meniscus_med_l.force.Y	femur_med_meniscii_l.meniscus_med_l.force.Z	femur_med_meniscii_l.meniscus_med_l.torque.X	femur_med_meniscii_l.meniscus_med_l.torque.Y	femur_med_meniscii_l.meniscus_med_l.torque.Z	femur_lat_meniscii_r.femur_lat_r.force.X	femur_lat_meniscii_r.femur_lat_r.force.Y	femur_lat_meniscii_r.femur_lat_r.force.Z	femur_lat_meniscii_r.femur_lat_r.torque.X	femur_lat_meniscii_r.femur_lat_r.torque.Y	femur_lat_meniscii_r.femur_lat_r.torque.Z	femur_lat_meniscii_r.meniscus_lat_r.force.X	femur_lat_meniscii_r.meniscus_lat_r.force.Y	femur_lat_meniscii_r.meniscus_lat_r.force.Z	femur_lat_meniscii_r.meniscus_lat_r.torque.X	femur_lat_meniscii_r.meniscus_lat_r.torque.Y	femur_lat_meniscii_r.meniscus_lat_r.torque.Z	femur_med_meniscii_r.femur_med_r.force.X	femur_med_meniscii_r.femur_med_r.force.Y	femur_med_meniscii_r.femur_med_r.force.Z	femur_med_meniscii_r.femur_med_r.torque.X	femur_med_meniscii_r.femur_med_r.torque.Y	femur_med_meniscii_r.femur_med_r.torque.Z	femur_med_meniscii_r.meniscus_med_r.force.X	femur_med_meniscii_r.meniscus_med_r.force.Y	femur_med_meniscii_r.meniscus_med_r.force.Z	femur_med_meniscii_r.meniscus_med_r.torque.X	femur_med_meniscii_r.meniscus_med_r.torque.Y	femur_med_meniscii_r.meniscus_med_r.torque.Z	femur_med_tibia_l.tibia_upper_l.force.X	femur_med_tibia_l.tibia_upper_l.force.Y	femur_med_tibia_l.tibia_upper_l.force.Z	femur_med_tibia_l.tibia_upper_l.torque.X	femur_med_tibia_l.tibia_upper_l.torque.Y	femur_med_tibia_l.tibia_upper_l.torque.Z	femur_med_tibia_l.femur_med_l.force.X	femur_med_tibia_l.femur_med_l.force.Y	femur_med_tibia_l.femur_med_l.force.Z	femur_med_tibia_l.femur_med_l.torque.X	femur_med_tibia_l.femur_med_l.torque.Y	femur_med_tibia_l.femur_med_l.torque.Z	femur_lat_tibia_l.tibia_upper_l.force.X	femur_lat_tibia_l.tibia_upper_l.force.Y	femur_lat_tibia_l.tibia_upper_l.force.Z	femur_lat_tibia_l.tibia_upper_l.torque.X	femur_lat_tibia_l.tibia_upper_l.torque.Y	femur_lat_tibia_l.tibia_upper_l.torque.Z	femur_lat_tibia_l.femur_lat_l.force.X	femur_lat_tibia_l.femur_lat_l.force.Y	femur_lat_tibia_l.femur_lat_l.force.Z	femur_lat_tibia_l.femur_lat_l.torque.X	femur_lat_tibia_l.femur_lat_l.torque.Y	femur_lat_tibia_l.femur_lat_l.torque.Z	femur_med_tibia_r.tibia_upper_r.force.X	femur_med_tibia_r.tibia_upper_r.force.Y	femur_med_tibia_r.tibia_upper_r.force.Z	femur_med_tibia_r.tibia_upper_r.torque.X	femur_med_tibia_r.tibia_upper_r.torque.Y	femur_med_tibia_r.tibia_upper_r.torque.Z	femur_med_tibia_r.femur_med_r.force.X	femur_med_tibia_r.femur_med_r.force.Y	femur_med_tibia_r.femur_med_r.force.Z	femur_med_tibia_r.femur_med_r.torque.X	femur_med_tibia_r.femur_med_r.torque.Y	femur_med_tibia_r.femur_med_r.torque.Z	femur_lat_tibia_r.tibia_upper_r.force.X	femur_lat_tibia_r.tibia_upper_r.force.Y	femur_lat_tibia_r.tibia_upper_r.force.Z	femur_lat_tibia_r.tibia_upper_r.torque.X	femur_lat_tibia_r.tibia_upper_r.torque.Y	femur_lat_tibia_r.tibia_upper_r.torque.Z	femur_lat_tibia_r.femur_lat_r.force.X	femur_lat_tibia_r.femur_lat_r.force.Y	femur_lat_tibia_r.femur_lat_r.force.Z	femur_lat_tibia_r.femur_lat_r.torque.X	femur_lat_tibia_r.femur_lat_r.torque.Y	femur_lat_tibia_r.femur_lat_r.torque.Z	aACL_R	pACL_R	aPCL_R	pPCL_R	aMCL_R	mMCL_R	pMCL_R	aLCL_R	mLCL_R	pLCL_R	aPCL_L	pPCL_L	aMCL_L	aLCL_L	ground_prescribedForce_-20_fx	ground_prescribedForce_-20_fy	ground_prescribedForce_-20_fz
      0.23163370	      9.17011617	      6.77790641	      7.27140038	      3.15676722	      3.71894000	      3.87725150	      9.15433124	      5.64798102	      8.76210248	      8.10953132	      1.97299456	      6.72932039	      4.90871573	      3.48767909	      2.94438061	      4.87449858	      4.69535010	      2.66085783	      2.06578827	      4.37392567	      6.65037347	      4.98039687	     24.67106441	     15.25447254	      4.32191650	      3.18338362	      5.30213454	     16.52288224	     13.79948872	     13.89190276	     17.77611642	      3.49603198	      1.45664358	      9.04832520	     10.76504466	      2.69887076	      2.54498357	     15.94736499	      4.12876790	      9.61012857	      1.25072792	      6.78885367	      2.43081046	      9.17011617	      6.77790641	      7.27140038	      3.15676722	      3.71894000	      3.87725150	     11.06262455	      4.95189275	      9.62785957	      8.60045017	      1.80286178	      6.72932039	      4.90871573	      3.48767909	      2.94438061	      4.87449858	      4.64649083	      2.66085783	      1.85461152	      4.37392567	      6.65037347	      4.98039687	     24.67106441	     15.25447254	      4.32191650	      3.18338362	      5.30213454	     13.32094770	      7.92177042	      9.11859146	      9.79728856	     18.72872960	      8.69918242	     40.30632625	     46.09762682	      3.72178677	      3.81946678	     10.45973299	      5.50763797	     15.06222117	      2.35988764	      6.81608725	      2.14330123	     29.70019242	     29.70019242	     10.85248324	     10.85248324	     28.47000490	     28.47000490	      2.76307435	     50.99597937	     -9.56042239	      5.21997485	     -0.02578839	      1.48581788	     -2.76307435	    -50.99597937	      9.56042239	     -1.74637766	      0.02558040	     -0.48301696	     -3.31599387	     20.97615968	     -3.40468921	      0.94473225	     -0.02138609	     -1.00501789	      3.31599387	    -20.97615968	      3.40468921	      0.28075727	      0.00368718	     -0.29758878	     22.81105292	     27.42435523	      7.36034178	     -3.72723018	      0.56485427	      9.45410282	    -22.81105292	    -27.42435523	     -7.36034178	      0.99323381	     -0.69592356	     -0.49258601	     76.43075797	     56.49890727	      2.26309233	      0.20511120	     -1.53851793	     31.50329850	    -76.43075797	    -56.49890727	     -2.26309233	     -0.88076107	      1.25996421	     -1.73057955	      0.00000000	      0.00000000	      0.00000000	      0.00000000	      0.00000000	      0.00000000	      0.00000000	      0.00000000	      0.00000000	      0.00000000	      0.00000000	      0.00000000	      0.00000000	      0.00000000	      0.00000000	      0.00000000	      0.00000000	      0.00000000	      0.00000000	      0.00000000	      0.00000000	      0.00000000	      0.00000000	      0.00000000	      0.00000000	      0.00000000	      0.00000000	      0.00000000	      0.00000000	      0.00000000	      0.00000000	      0.00000000	      0.00000000	      0.00000000	      0.00000000	      0.00000000	      0.00000000	      0.00000000	      0.00000000	      0.00000000	      0.00000000	      0.00000000	      0.00000000	      0.00000000	      0.00000000	      0.00000000	      0.00000000	      0.00000000	      3.12801442	      6.64586185	      0.00000000	      0.39742302	      0.00000000	      0.00000000	      9.63584181	     -1.61942108	      0.00000000	      0.00000000	      0.00000000	      0.00000000	      0.00000001	      0.00000000	    103.36618800	    -37.62220000	      0.00000000
      0.23228995	      9.15623855	      6.76842955	      7.26110712	      3.15253770	      3.71434239	      3.87139736	      9.15170618	      5.64397993	      8.75438285	      8.10176130	      1.97096535	      6.71980029	      4.90217476	      3.48283220	      2.94019052	      4.86690466	      4.68736666	      2.65727009	      2.06412254	      4.36780167	      6.64103655	      4.97328263	     24.65376156	     15.23482777	      4.31600161	      3.18055468	      5.29223108	     16.51169552	     13.79385217	     13.88648272	     17.76896807	      3.49335301	      1.45383114	      9.03393047	     10.74624203	      2.72885381	      2.55152802	     15.92214577	      4.12616338	      9.58613030	      8.57514690	      6.70944981	      2.42045151	      9.15623855	      6.76842955	      7.26110712	      3.15253770	      3.71434239	      3.87139736	     11.04312892	      4.94446408	      9.61138821	      8.58866969	      1.80045572	      6.71980029	      4.90217476	      3.48283220	      2.94019052	      4.86690466	      4.64178476	      2.65727009	      1.85209584	      4.36780167	      6.64103655	      4.97328263	     24.65376156	     15.23482777	      4.31600161	      3.18055468	      5.29223108	     13.29842817	      7.91040041	      9.10526310	      9.78301333	     18.69170550	      8.68196287	     40.23086989	     46.06625966	      3.71379878	      3.81202113	     10.44261348	      5.49780824	     15.04103189	      2.35685368	      6.80270535	      2.13916063	     29.66031549	     29.66031549	     10.83665874	     10.83665874	     28.45575841	     28.45575841	      2.76307435	     50.99597937	     -9.56042239	      5.21997485	     -0.02578839	      1.48581788	     -2.76307435	    -50.99597937	      9.56042239	     -1.74637766	      0.02558040	     -0.48301696	     -3.31599387	     20.97615968	     -3.40468921	      0.94473225	     -0.02138609	     -1.00501789	      3.31599387	    -20.97615968	      3.40468921	      0.28075727	      0.00368718	     -0.29758878	     23.10366149	     28.02252636	      7.56915638	     -3.82887847	      0.57243426	      9.57419800	    -23.10366149	    -28.02252636	     -7.56915638	      1.01669294	     -0.70609559	     -0.49560232	     76.02960110	     56.11313268	      2.18356007	      0.22885110	     -1.52931439	     31.33816628	    -76.02960110	    -56.11313268	     -2.18356007	     -0.87520301	      1.25258793	     -1.72145616	      0.00000000	      0.00000000	      0.00000000	      0.00000000	      0.00000000	      0.00000000	      0.00000000	      0.00000000	      0.00000000	      0.00000000	      0.00000000	      0.00000000	      0.00000000	      0.00000000	      0.00000000	      0.00000000	      0.00000000	      0.00000000	      0.00000000	      0.00000000	      0.00000000	      0.00000000	      0.00000000	      0.00000000	      0.00000000	      0.00000000	      0.00000000	      0.00000000	      0.00000000	      0.00000000	      0.00000000	      0.00000000	      0.00000000	      0.00000000	      0.00000000	      0.00000000	      0.00000000	      0.00000000	      0.00000000	      0.00000000	      0.00000000	      0.00000000	      0.00000000	      0.00000000	      0.00000000	      0.00000000	      0.00000000	      0.00000000	      3.19246235	      6.73923120	      0.00000000	      0.31024132	      0.00000000	      0.00000000	      9.68510174	     -1.73909579	      0.00000000	      0.00000000	      0.00000000	      0.00000000	      0.00000001	      0.00000000	    103.36618800	    -37.62220000	      0.00000000
      0.23294620	      9.14248091	      6.75903414	      7.25090248	      3.14834496	      3.70978426	      3.86559381	      9.14935891	      5.64013701	      8.74683246	      8.09333734	      1.96916756	      6.71036215	      4.89570059	      3.47802697	      2.93603659	      4.85937644	      4.67948950	      2.65371315	      2.06256412	      4.36173041	      6.63178006	      4.96622978	     24.63660841	     15.21535400	      4.31013743	      3.17775043	      5.28240818	     16.50089943	     13.78951122	     13.88203868	     17.76309529	      3.48987200	      1.45052893	      9.01662883	     10.72461770	      2.75824929	      2.55728829	     15.89681402	      4.12495457	      9.56399554	      8.60218018	      6.63087341	      2.41060878	      9.14248091	      6.75903414	      7.25090248	      3.14834496	      3.70978426	      3.86559381	     11.02379722	      4.93709961	      9.59505675	      8.57699026	      1.79807117	      6.71036215	      4.89570059	      3.47802697	      2.93603659	      4.85937644	      4.63711941	      2.65371315	      1.84960172	      4.36173041	      6.63178006	      4.96622978	     24.63660841	     15.21535400	      4.31013743	      3.17775043	      5.28240818	     13.27610051	      7.89912882	      9.09205030	      9.76886205	     18.65496822	      8.66487686	     40.15602862	     46.03515790	      3.70587855	      3.80463973	     10.42564094	      5.48806084	     15.02001527	      2.35384605	      6.78942955	      2.13505351	     29.62078316	     29.62078316	     10.82097079	     10.82097079	     28.44163532	     28.44163532	      2.76307435	     50.99597937	     -9.56042239	      5.21997485	     -0.02578839	      1.48581788	     -2.76307435	    -50.99597937	      9.56042239	     -1.74637766	      0.02558040	     -0.48301696	     -3.31599387	     20.97615968	     -3.40468921	      0.94473225	     -0.02138609	     -1.00501789	      3.31599387	    -20.97615968	      3.40468921	      0.28075727	      0.00368718	     -0.29758878	     23.47563913	     28.54567117	      7.76442353	     -3.92288427	      0.58212534	      9.72828695	    -23.47563913	    -28.54567117	     -7.76442353	      1.03745703	     -0.71855931	     -0.50263772	     75.45908538	     55.88956065	      2.16480734	      0.22992101	     -1.51681798	     31.10129694	    -75.45908538	    -55.88956065	     -2.16480734	     -0.86977090	      1.24206372	     -1.70450899	      0.00000000	      0.00000000	      0.00000000	      0.00000000	      0.00000000	      0.00000000	      0.00000000	      0.00000000	      0.00000000	      0.00000000	      0.00000000	      0.00000000	      0.00000000	      0.00000000	      0.00000000	      0.00000000	      0.00000000	      0.00000000	      0.00000000	      0.00000000	      0.00000000	      0.00000000	      0.00000000	      0.00000000	      0.00000000	      0.00000000	      0.00000000	      0.00000000	      0.00000000	      0.00000000	      0.00000000	      0.00000000	      0.00000000	      0.00000000	      0.00000000	      0.00000000	      0.00000000	      0.00000000	      0.00000000	      0.00000000	      0.00000000	      0.00000000	      0.00000000	      0.00000000	      0.00000000	      0.00000000	      0.00000000	      0.00000000	      3.24771454	      6.82890034	      0.00000000	      0.34765196	      0.00000000	      0.00000000	      9.76344850	     -1.72111023	      0.00000000	      0.00000000	      0.00000000	      0.00000000	      0.00000001	      0.00000000	    103.36618800	    -37.62220000	      0.00000000
      0.23622745	      9.07545566	      6.71325404	      7.20118161	      3.12791738	      3.68757370	      3.83731939	      9.14162393	      5.62309081	      8.71700751	      8.05978971	      1.96109786	      6.66437599	      4.86420953	      3.45461321	      2.91579812	      4.82270053	      4.64274521	      2.63638062	      2.05562769	      4.33214928	      6.58667956	      4.93186757	     24.55304230	     15.12049729	      4.28156186	      3.16409189	      5.23447928	     16.45560532	     13.77752299	     13.87135736	     17.75096504	      3.47560662	      1.43650831	      8.93761954	     10.60710262	      2.90040056	      2.57872418	     15.77324918	      4.12127486	      9.46321529	      8.68692323	      6.24501031	      2.36943426	      9.07545566	      6.71325404	      7.20118161	      3.12791738	      3.68757370	      3.83731939	     10.92954955	      4.90122055	      9.51545623	      8.52007797	      1.78645716	      6.66437599	      4.86420953	      3.45461321	      2.91579812	      4.82270053	      4.61439089	      2.63638062	      1.83744798	      4.33214928	      6.58667956	      4.93186757	     24.55304230	     15.12049729	      4.28156186	      3.16409189	      5.23447928	     13.16728299	      7.84421691	      9.02768424	      9.69992671	     18.47550499	      8.58141285	     39.79087296	     45.88355030	      3.66727069	      3.76867433	     10.34293840	      5.44053465	     14.91747146	      2.33919479	      6.72461573	      2.11501202	     29.42816238	     29.42816238	     10.74453772	     10.74453772	     28.37283285	     28.37283285	      2.76307435	     50.99597937	     -9.56042239	      5.21997485	     -0.02578839	      1.48581788	     -2.76307435	    -50.99597937	      9.56042239	     -1.74637766	      0.02558040	     -0.48301696	     -3.31599387	     20.97615968	     -3.40468921	      0.94473225	     -0.02138609	     -1.00501789	      3.31599387	    -20.97615968	      3.40468921	      0.28075727	      0.00368718	     -0.29758878	     25.47943063	     31.05314024	      8.65271873	     -4.35389373	      0.63179884	     10.55958237	    -25.47943063	    -31.05314024	     -8.65271873	      1.13567560	     -0.78200664	     -0.54391075	     73.07795247	     54.27042235	      1.93397734	      0.28674834	     -1.46129618	     30.11741777	    -73.07795247	    -54.27042235	     -1.93397734	     -0.84318353	      1.19584350	     -1.64274416	      0.00000000	      0.00000000	      0.00000000	      0.00000000	      0.00000000	      0.00000000	      0.00000000	      0.00000000	      0.00000000	      0.00000000	      0.00000000	      0.00000000	      0.00000000	      0.00000000	      0.00000000	      0.00000000	      0.00000000	      0.00000000	      0.00000000	      0.00000000	      0.00000000	      0.00000000	      0.00000000	      0.00000000	      0.00000000	      0.00000000	      0.00000000	      0.00000000	      0.00000000	      0.00000000	      0.00000000	      0.00000000	      0.00000000	      0.00000000	      0.00000000	      0.00000000	      0.00000000	      0.00000000	      0.00000000	      0.00000000	      0.00000000	      0.00000000	      0.00000000	      0.00000000	      0.00000000	      0.00000000	      0.00000000	      0.00000000	      3.52967172	      7.28626437	      0.00000000	      0.42182745	      0.00000000	      0.00000000	     10.07652624	     -1.69943749	      0.00000000	      0.00000000	      0.00000000	      0.00000000	      0.00000001	      0.00000000	    103.36618800	    -37.62220000	      0.00000000
